<?xml version="1.0" encoding="UTF-8"?>
<svg id="a" data-name="Logo (Shapes)" xmlns="http://www.w3.org/2000/svg" width="512" height="512" viewBox="0 0 512 512">
  <path d="M198.09,178.85c-3.53,0-7.04-1.56-9.41-4.55-4.12-5.19-3.22-12.76,1.97-16.88,1.02-.81,25.32-19.74,65.36-19.74s64.34,18.93,65.36,19.74c5.19,4.12,6.06,11.67,1.94,16.86-4.12,5.19-11.67,6.06-16.86,1.94-.13-.1-19.17-14.54-50.43-14.54s-50.31,14.44-50.49,14.58c-2.2,1.75-4.82,2.59-7.42,2.59Z" style="fill: #edf0f3;"/>
  <path d="M353.91,141.77c-2.71,0-5.44-.91-7.68-2.79-.31-.26-34.94-28.21-90.23-28.21s-89.91,27.95-90.26,28.24c-5.11,4.2-12.66,3.49-16.88-1.6-4.22-5.09-3.54-12.62,1.54-16.86,1.65-1.38,41.23-33.78,105.6-33.78s103.95,32.4,105.6,33.78c5.09,4.25,5.77,11.81,1.53,16.9-2.37,2.84-5.79,4.31-9.22,4.31Z" style="fill: #edf0f3;"/>
  <path d="M392.91,103.77c-2.66,0-5.33-.88-7.55-2.68-.5-.4-52.24-41.31-129.35-41.31S127.14,100.69,126.63,101.11c-5.16,4.15-12.71,3.35-16.87-1.8-4.16-5.15-3.38-12.68,1.76-16.85,2.35-1.91,58.52-46.68,144.47-46.68s142.12,44.77,144.47,46.68c5.15,4.18,5.93,11.73,1.76,16.88-2.37,2.92-5.83,4.44-9.33,4.44Z" style="fill: #edf0f3;"/>
  <path d="M326.61,199.9c-35.33,4.56-50.15,20.52-55.85,48.44-2.33,11.43-1.61,19.99,.6,26.55-3.55,2.85-8.69,7.65-14.07,15.05-.44,.6-.87,1.24-1.3,1.9-.43-.66-.86-1.3-1.3-1.9-5.38-7.4-10.52-12.21-14.07-15.05,2.21-6.56,2.94-15.12,.6-26.55-5.7-27.93-20.52-43.88-55.85-48.44-35.33-4.56-68.39,11.97-68.39,11.97l6.84,27.93c5.13,16.53,15.39,38.18,38.38,53.57,22.49,15.05,54.76,6.66,63.63,.42,2.08,1.69,5.58,4.95,9.45,10.27,2.51,3.45,5.6,10.63,7.74,16.32h-63.16c-8.84,0-16,7.16-16,16v11.62c0,8.84,7.16,16,16,16h151.45c8.84,0,16-7.16,16-16v-11.62c0-8.84-7.16-16-16-16h-62.36c2.14-5.69,5.23-12.87,7.74-16.32,3.87-5.32,7.37-8.58,9.45-10.27,8.87,6.24,41.14,14.63,63.63-.42,22.99-15.39,33.25-37.04,38.38-53.57l6.84-27.93s-33.06-16.53-68.39-11.97Z" style="fill: #edf0f3;"/>
  <path id="b" data-name="&amp;lt;Path&amp;gt;" d="M255.6,376h79.96s-17.84,79.49-17.84,79.49c-1.17,4.77-5.19,8.1-9.79,8.1h-52.33s-52.33,0-52.33,0c-4.6,0-8.62-3.33-9.79-8.1l-17.84-79.49h79.96Z" style="fill: #edf0f3;"/>
</svg>