<?xml version="1.0" encoding="UTF-8"?>
<svg id="b" data-name="Banner" xmlns="http://www.w3.org/2000/svg" width="461" height="205" viewBox="0 0 461 205">
  <path d="M54.57,75.8c-1.37,0-2.72-.6-3.64-1.76-1.59-2.01-1.25-4.93,.76-6.52,.39-.31,9.78-7.63,25.25-7.63s24.86,7.31,25.25,7.63c2.01,1.59,2.34,4.51,.75,6.51-1.59,2.01-4.51,2.34-6.51,.75-.05-.04-7.41-5.62-19.49-5.62s-19.44,5.58-19.51,5.63c-.85,.67-1.86,1-2.87,1Z" style="fill: #edf0f3; stroke: #120f0c; stroke-miterlimit: 10; stroke-width: .5px;"/>
  <path d="M114.77,61.48c-1.05,0-2.1-.35-2.97-1.08-.12-.1-13.5-10.9-34.86-10.9s-34.74,10.8-34.87,10.91c-1.97,1.62-4.89,1.35-6.52-.62-1.63-1.97-1.37-4.88,.59-6.51,.64-.53,15.93-13.05,40.8-13.05s40.16,12.52,40.8,13.05c1.97,1.64,2.23,4.56,.59,6.53-.92,1.1-2.24,1.67-3.56,1.67Z" style="fill: #edf0f3; stroke: #120f0c; stroke-miterlimit: 10; stroke-width: .5px;"/>
  <path d="M129.84,46.79c-1.03,0-2.06-.34-2.92-1.04-.19-.15-20.18-15.96-49.97-15.96s-49.78,15.81-49.98,15.97c-1.99,1.6-4.91,1.29-6.52-.7-1.61-1.99-1.3-4.9,.68-6.51,.91-.74,22.61-18.03,55.82-18.03s54.91,17.3,55.82,18.03c1.99,1.61,2.29,4.53,.68,6.52-.92,1.13-2.25,1.72-3.6,1.72Z" style="fill: #edf0f3; stroke: #120f0c; stroke-miterlimit: 10; stroke-width: .5px;"/>
  <path d="M104.22,83.93c-13.65,1.76-19.38,7.93-21.58,18.72-.9,4.41-.62,7.72,.23,10.26-1.37,1.1-3.36,2.96-5.43,5.82-.17,.23-.34,.48-.5,.73-.17-.26-.33-.5-.5-.73-2.08-2.86-4.06-4.72-5.43-5.82,.85-2.53,1.13-5.84,.23-10.26-2.2-10.79-7.93-16.95-21.58-18.72-13.65-1.76-26.42,4.62-26.42,4.62l2.64,10.79c1.98,6.39,5.94,14.75,14.83,20.7,8.69,5.81,21.15,2.57,24.58,.16,.8,.65,2.16,1.91,3.65,3.97,.97,1.33,2.16,4.11,2.99,6.31h-25.22c-2.96,0-5.36,2.4-5.36,5.36v6.13c0,2.96,2.4,5.36,5.36,5.36h60.16c2.96,0,5.36-2.4,5.36-5.36v-6.13c0-2.96-2.4-5.36-5.36-5.36h-24.91c.83-2.2,2.02-4.97,2.99-6.31,1.49-2.05,2.85-3.31,3.65-3.97,3.43,2.41,15.89,5.65,24.58-.16,8.88-5.94,12.85-14.31,14.83-20.7l2.64-10.79s-12.77-6.39-26.42-4.62Z" style="fill: #edf0f3; stroke: #120f0c; stroke-miterlimit: 10; stroke-width: .5px;"/>
  <path id="c" data-name="&amp;lt;Path&amp;gt;" d="M76.79,151.97h30.89s-6.89,30.71-6.89,30.71c-.45,1.84-2,3.13-3.78,3.13h-20.22s-20.22,0-20.22,0c-1.78,0-3.33-1.28-3.78-3.13l-6.89-30.71h30.89Z" style="fill: #edf0f3; stroke: #120f0c; stroke-miterlimit: 10; stroke-width: .5px;"/>
  <g>
    <path d="M182.14,181.96c-5.15,2.97-11.54,4.45-19.19,4.45-8.48,0-15.16-2.35-20.05-7.04s-7.33-11.16-7.33-19.39,2.67-15.03,8.01-20.25,12.45-7.83,21.32-7.83c5.59,0,10.51,.77,14.78,2.32v11.14c-4.07-2.35-9.04-3.53-14.92-3.53-4.93,0-8.94,1.6-12.04,4.8-3.1,3.2-4.65,7.47-4.65,12.81s1.39,9.61,4.17,12.57c2.78,2.96,6.54,4.45,11.27,4.45,2.84,0,5.1-.4,6.76-1.21v-10.29h-10.55v-9.48h22.42v26.5Z" style="fill: #edf0f3; stroke: #120f0c; stroke-miterlimit: 10; stroke-width: .5px;"/>
    <path d="M213.93,158.32c-1.4-.76-3.03-1.14-4.89-1.14-2.52,0-4.5,.93-5.92,2.78-1.42,1.85-2.13,4.37-2.13,7.55v17.98h-11.62v-37.64h11.62v6.98h.15c1.84-5.1,5.15-7.65,9.93-7.65,1.22,0,2.18,.15,2.87,.44v10.7Z" style="fill: #edf0f3; stroke: #120f0c; stroke-miterlimit: 10; stroke-width: .5px;"/>
    <path d="M235.1,186.41c-6.27,0-11.21-1.76-14.79-5.27-3.59-3.52-5.39-8.29-5.39-14.32s1.86-11.09,5.59-14.61c3.72-3.52,8.76-5.28,15.11-5.28s11.15,1.76,14.7,5.28c3.55,3.52,5.33,8.17,5.33,13.95,0,6.25-1.83,11.19-5.5,14.81-3.66,3.63-8.68,5.44-15.05,5.44Zm.29-30.58c-2.74,0-4.88,.94-6.4,2.83-1.52,1.89-2.28,4.56-2.28,8.01,0,7.23,2.92,10.84,8.75,10.84s8.34-3.71,8.34-11.14c0-7.03-2.81-10.55-8.42-10.55Z" style="fill: #edf0f3; stroke: #120f0c; stroke-miterlimit: 10; stroke-width: .5px;"/>
    <path d="M315.81,147.85l-10.84,37.64h-12.2l-5.55-22.06c-.37-1.47-.58-3.08-.62-4.82h-.22c-.17,1.91-.42,3.47-.74,4.67l-5.96,22.2h-12.06l-10.62-37.64h11.84l5.18,24.56c.25,1.15,.43,2.55,.55,4.19h.22c.12-1.71,.34-3.16,.66-4.34l6.47-24.41h11.06l5.81,24.56c.15,.61,.32,2.03,.51,4.26h.26c.12-1.42,.32-2.84,.59-4.26l4.89-24.56h10.77Z" style="fill: #edf0f3; stroke: #120f0c; stroke-miterlimit: 10; stroke-width: .5px;"/>
    <path d="M342.86,186.41c-7.55,0-13.7-2.46-18.45-7.37-4.75-4.91-7.13-11.32-7.13-19.21,0-8.33,2.41-15.07,7.24-20.22,4.83-5.15,11.22-7.72,19.19-7.72,7.52,0,13.61,2.46,18.25,7.39s6.97,11.42,6.97,19.48-2.41,14.96-7.22,20.03c-4.82,5.07-11.1,7.61-18.84,7.61Zm.51-44.29c-4.17,0-7.47,1.56-9.92,4.69-2.45,3.12-3.68,7.26-3.68,12.41s1.23,9.35,3.68,12.39c2.45,3.04,5.66,4.56,9.63,4.56s7.34-1.48,9.74-4.43c2.4-2.95,3.6-7.05,3.6-12.3s-1.16-9.72-3.49-12.75c-2.33-3.04-5.51-4.56-9.56-4.56Z" style="fill: #edf0f3; stroke: #120f0c; stroke-miterlimit: 10; stroke-width: .5px;"/>
    <path d="M411.01,185.49h-11.58v-20.92c0-5.83-2.08-8.75-6.25-8.75-2.01,0-3.66,.77-4.96,2.32s-1.95,3.5-1.95,5.88v21.47h-11.62v-37.64h11.62v5.96h.15c2.77-4.58,6.8-6.87,12.09-6.87,8.33,0,12.5,5.17,12.5,15.51v23.05Z" style="fill: #edf0f3; stroke: #120f0c; stroke-miterlimit: 10; stroke-width: .5px;"/>
    <path d="M452.13,169.98h-24.55c.39,5.47,3.83,8.2,10.33,8.2,4.14,0,7.78-.98,10.92-2.94v8.38c-3.48,1.86-8,2.79-13.56,2.79-6.08,0-10.79-1.68-14.15-5.05-3.36-3.37-5.04-8.07-5.04-14.1s1.81-11.2,5.44-14.85,8.09-5.48,13.38-5.48,9.74,1.63,12.74,4.89,4.5,7.68,4.5,13.27v4.89Zm-10.77-7.13c0-5.39-2.18-8.09-6.54-8.09-1.86,0-3.47,.77-4.83,2.32-1.36,1.54-2.19,3.47-2.48,5.77h13.86Z" style="fill: #edf0f3; stroke: #120f0c; stroke-miterlimit: 10; stroke-width: .5px;"/>
  </g>
</svg>